<?xml version="1.0" standalone="no"?>
<!DOCTYPE svg PUBLIC "-//W3C//DTD SVG 20010904//EN"
 "http://www.w3.org/TR/2001/REC-SVG-20010904/DTD/svg10.dtd">
<svg version="1.0" xmlns="http://www.w3.org/2000/svg"
 width="720.000000pt" height="720.000000pt" viewBox="0 0 720.000000 720.000000"
 preserveAspectRatio="xMidYMid meet">

<g transform="translate(0.000000,720.000000) scale(0.100000,-0.100000)"
fill="#000000" stroke="none">
<path d="M2391 4974 c-20 -25 -21 -39 -21 -245 l0 -219 -220 0 c-235 0 -261
-5 -279 -49 -8 -18 -11 -353 -9 -1124 l3 -1099 24 -19 c23 -19 60 -19 1458
-19 l1434 0 24 25 c25 24 25 27 25 195 l0 170 229 0 c210 0 231 2 252 19 l24
19 0 1167 0 1167 -24 19 c-23 19 -60 19 -1461 19 l-1439 0 -20 -26z m2809
-1179 l0 -1065 -185 0 -185 0 0 864 c0 836 -1 865 -19 887 l-19 24 -1141 3
-1141 2 0 175 0 175 1345 0 1345 0 0 -1065z m-510 -440 l0 -1015 -1345 0
-1345 0 0 1015 0 1015 1345 0 1345 0 0 -1015z"/>
<path d="M3306 4009 l-26 -20 0 -285 0 -284 -284 0 -285 0 -20 -26 c-26 -33
-26 -55 -2 -85 l19 -24 286 -3 286 -3 0 -279 c0 -267 1 -281 20 -300 25 -25
61 -26 89 -2 20 17 21 25 22 300 l0 282 280 0 280 0 24 25 c28 27 32 62 11 91
-13 18 -32 19 -303 24 l-288 5 -2 270 c-2 149 -5 279 -8 291 -4 18 -42 44 -64
44 -5 0 -20 -9 -35 -21z"/>
</g>
</svg>
