<?xml version="1.0" standalone="no"?>
<!DOCTYPE svg PUBLIC "-//W3C//DTD SVG 20010904//EN"
 "http://www.w3.org/TR/2001/REC-SVG-20010904/DTD/svg10.dtd">
<svg version="1.0" xmlns="http://www.w3.org/2000/svg"
 width="446.000000pt" height="68.000000pt" viewBox="0 0 446.000000 68.000000"
 preserveAspectRatio="xMidYMid meet">

<g transform="translate(0.000000,68.000000) scale(0.100000,-0.100000)"
fill="#000000" stroke="none">
<path d="M2472 550 c-79 -11 -128 -35 -164 -81 -34 -43 -152 -325 -144 -346 5
-12 45 -14 268 -11 258 3 264 4 312 28 58 29 73 48 120 153 l35 77 -197 0
-198 0 -12 -33 c-7 -18 -12 -36 -12 -40 0 -4 40 -7 89 -7 50 0 92 -4 95 -8 10
-17 -25 -51 -62 -62 -46 -12 -232 -13 -251 -1 -13 8 -10 21 14 80 62 155 62
155 355 150 l205 -4 11 25 c28 60 27 69 -8 74 -64 10 -394 14 -456 6z"/>
<path d="M3303 550 c-45 -10 -83 -44 -298 -259 l-190 -191 86 0 85 0 39 40 39
40 152 0 153 0 3 -37 3 -38 99 -3 98 -3 -7 223 c-4 123 -9 226 -12 231 -5 9
-208 7 -250 -3z m61 -161 c12 -119 21 -109 -96 -109 l-103 1 90 84 c50 46 93
85 96 85 3 0 9 -28 13 -61z"/>
<path d="M3945 544 c-11 -3 -37 -10 -57 -15 -79 -20 -109 -63 -204 -291 -59
-143 -60 -138 37 -138 l46 0 26 60 26 60 87 0 88 0 56 -55 56 -56 104 3 103 3
-51 56 c-29 31 -52 59 -52 62 0 3 17 8 37 12 55 10 90 40 122 104 40 77 82
183 76 189 -7 7 -476 12 -500 6z m268 -123 c-3 -10 -17 -34 -33 -52 l-28 -34
-141 -3 c-152 -4 -153 -3 -126 48 26 50 56 59 202 60 124 0 131 -1 126 -19z"/>
<path d="M272 521 c-60 -21 -105 -59 -132 -112 -43 -83 -121 -292 -112 -301 5
-5 125 -8 278 -6 311 3 319 5 378 91 20 29 36 56 36 60 0 4 -41 7 -92 7 -87 0
-94 -2 -121 -27 -28 -27 -31 -28 -168 -31 -84 -2 -139 0 -139 6 0 30 66 171
91 195 29 27 30 27 169 27 l140 0 -6 -25 -6 -26 93 3 93 3 27 70 26 70 -41 7
c-22 3 -135 7 -251 7 -178 0 -218 -2 -263 -18z"/>
<path d="M975 526 c-73 -18 -99 -39 -139 -115 -46 -88 -129 -301 -121 -309 4
-4 120 -6 258 -6 374 2 372 1 488 286 l58 143 -52 7 c-91 11 -439 7 -492 -6z
m246 -92 l67 -7 -18 -51 c-24 -72 -54 -127 -80 -151 -19 -18 -39 -20 -161 -23
-76 -2 -139 0 -139 5 0 20 63 161 83 187 33 40 110 53 248 40z"/>
<path d="M1675 533 c-45 -10 -77 -27 -94 -52 -19 -26 -151 -349 -151 -368 0
-21 302 -30 472 -13 112 11 169 34 198 83 37 60 151 329 146 343 -7 19 -179
20 -193 2 -5 -7 -33 -70 -62 -139 -29 -69 -63 -139 -76 -155 l-23 -29 -141 -3
c-105 -3 -141 0 -141 8 0 7 27 81 60 164 33 84 60 155 60 159 0 7 -22 8 -55 0z"/>
</g>
</svg>
