<?xml version="1.0" standalone="no"?>
<!DOCTYPE svg PUBLIC "-//W3C//DTD SVG 20010904//EN"
 "http://www.w3.org/TR/2001/REC-SVG-20010904/DTD/svg10.dtd">
<svg version="1.0" xmlns="http://www.w3.org/2000/svg"
 width="300.000000pt" height="300.000000pt" viewBox="0 0 300.000000 300.000000"
 preserveAspectRatio="xMidYMid meet">

<g transform="translate(0.000000,300.000000) scale(0.100000,-0.100000)"
fill="#000000" stroke="none">
<path d="M394 1695 c-36 -55 33 -106 70 -53 20 28 20 43 0 62 -23 23 -51 19
-70 -9z"/>
<path d="M2769 1592 c9 -7 10 -11 2 -15 -7 -4 -8 -5 -1 -3 16 2 14 20 -2 24
-10 3 -10 2 1 -6z"/>
<path d="M314 1571 c-43 -26 -89 -85 -103 -130 -12 -42 -15 -110 -5 -136 9
-23 57 -45 85 -38 47 12 51 23 19 61 -24 30 -30 46 -30 85 0 28 7 61 17 77 18
30 79 70 109 70 18 1 18 1 0 15 -26 20 -55 19 -92 -4z"/>
<path d="M2733 1576 c1 -10 10 -24 20 -30 21 -14 51 2 54 30 2 15 1 14 -7 -3
-5 -13 -18 -23 -30 -23 -12 0 -25 10 -30 23 -8 17 -9 18 -7 3z"/>
<path d="M334 1507 c-91 -84 -23 -230 100 -214 58 8 106 61 106 117 0 81 -47
130 -125 130 -37 0 -52 -6 -81 -33z m90 -3 c21 -21 20 -37 -4 -59 -41 -37 -97
24 -58 63 17 17 44 15 62 -4z"/>
<path d="M612 1432 c-23 -60 -42 -112 -42 -116 0 -4 30 -6 66 -4 l66 3 44 110
c24 60 44 110 44 112 0 2 -31 3 -68 3 l-69 0 -41 -108z"/>
<path d="M861 1527 c-31 -11 -39 -21 -68 -92 -17 -44 -32 -88 -33 -97 0 -24
46 -31 199 -27 100 3 134 8 144 19 8 8 29 52 47 98 25 64 30 86 21 95 -17 17
-266 21 -310 4z m179 -26 c0 -5 -13 -43 -29 -83 -30 -73 -30 -73 -70 -76 -23
-2 -41 1 -41 7 0 6 9 34 21 63 12 29 25 63 30 76 7 18 16 22 49 22 22 0 40 -4
40 -9z"/>
<path d="M1251 1527 c-31 -11 -39 -21 -68 -92 -17 -44 -32 -87 -33 -96 0 -24
29 -29 193 -29 l148 0 19 46 c11 25 20 50 20 55 0 5 -43 9 -95 9 -57 0 -95 -4
-95 -10 0 -5 11 -10 25 -10 29 0 29 0 13 -35 -9 -21 -18 -25 -54 -25 l-42 0
33 83 33 82 41 3 c40 3 41 2 35 -22 -6 -26 -6 -26 60 -26 61 0 67 2 78 25 9
20 9 28 -1 38 -17 17 -265 21 -310 4z"/>
<path d="M1616 1531 c-6 -9 -86 -213 -86 -218 0 -2 105 -3 234 -3 l235 0 21
30 c19 27 27 30 76 30 53 0 54 0 54 -30 l0 -30 65 0 65 0 0 63 c0 34 -3 86 -6
115 l-7 52 -101 0 -101 0 -83 -100 -84 -100 -109 0 c-60 0 -109 2 -109 5 0 3
6 21 14 40 l15 34 82 3 c53 2 84 7 86 15 3 9 -19 13 -75 15 l-80 3 13 33 14
32 106 0 c63 0 105 4 105 10 0 12 -336 14 -344 1z m530 -117 c-5 -13 -66 -21
-66 -9 0 3 15 25 33 49 l32 43 3 -34 c2 -19 1 -41 -2 -49z"/>
<path d="M2363 1494 c-12 -27 -33 -79 -47 -116 l-25 -68 68 0 68 0 20 53 c19
50 22 52 62 55 22 2 41 1 41 -2 0 -3 -9 -28 -20 -56 l-20 -50 69 0 69 0 17 44
c20 52 17 61 -27 71 l-33 8 44 7 c45 7 71 30 71 61 0 27 -26 32 -186 37 l-151
4 -20 -48z m214 -16 c-12 -29 -18 -33 -56 -36 -39 -3 -43 -1 -36 15 4 10 10
26 12 36 4 13 16 17 49 17 l44 0 -13 -32z"/>
</g>
</svg>
