<?xml version="1.0" standalone="no"?>
<!DOCTYPE svg PUBLIC "-//W3C//DTD SVG 20010904//EN"
 "http://www.w3.org/TR/2001/REC-SVG-20010904/DTD/svg10.dtd">
<svg version="1.0" xmlns="http://www.w3.org/2000/svg"
 width="50.000000pt" height="50.000000pt" viewBox="0 0 50.000000 50.000000"
 preserveAspectRatio="xMidYMid meet">

<g transform="translate(0.000000,50.000000) scale(0.100000,-0.100000)"
fill="#000000" stroke="none">
<path d="M60 250 l0 -230 190 0 190 0 0 230 0 230 -190 0 -190 0 0 -230z m360
0 l0 -210 -170 0 -170 0 0 210 0 210 170 0 170 0 0 -210z"/>
<path d="M130 380 c0 -6 47 -10 120 -10 73 0 120 4 120 10 0 6 -47 10 -120 10
-73 0 -120 -4 -120 -10z"/>
<path d="M130 240 c0 -5 9 -10 20 -10 11 0 20 5 20 10 0 6 -9 10 -20 10 -11 0
-20 -4 -20 -10z"/>
<path d="M200 240 c0 -6 35 -10 85 -10 50 0 85 4 85 10 0 6 -35 10 -85 10 -50
0 -85 -4 -85 -10z"/>
<path d="M130 180 c0 -5 9 -10 20 -10 11 0 20 5 20 10 0 6 -9 10 -20 10 -11 0
-20 -4 -20 -10z"/>
<path d="M200 180 c0 -6 35 -10 85 -10 50 0 85 4 85 10 0 6 -35 10 -85 10 -50
0 -85 -4 -85 -10z"/>
<path d="M130 120 c0 -5 9 -10 20 -10 11 0 20 5 20 10 0 6 -9 10 -20 10 -11 0
-20 -4 -20 -10z"/>
<path d="M200 120 c0 -6 35 -10 85 -10 50 0 85 4 85 10 0 6 -35 10 -85 10 -50
0 -85 -4 -85 -10z"/>
</g>
</svg>
