<?xml version="1.0" standalone="no"?>
<!DOCTYPE svg PUBLIC "-//W3C//DTD SVG 20010904//EN"
 "http://www.w3.org/TR/2001/REC-SVG-20010904/DTD/svg10.dtd">
<svg version="1.0" xmlns="http://www.w3.org/2000/svg"
 width="225.000000pt" height="225.000000pt" viewBox="0 0 225.000000 225.000000"
 preserveAspectRatio="xMidYMid meet">

<g transform="translate(0.000000,225.000000) scale(0.100000,-0.100000)"
fill="#000000" stroke="none">
<path d="M1100 2150 c-51 -14 -966 -478 -985 -500 -19 -21 -20 -36 -20 -525 0
-489 1 -504 20 -525 21 -23 985 -510 1010 -510 25 0 989 487 1010 510 19 21
20 36 20 525 0 489 -1 504 -20 525 -19 21 -934 485 -985 500 -14 4 -36 4 -50
0z m-80 -505 l-365 -183 -130 65 -130 66 365 182 365 183 130 -65 130 -66
-365 -182z m710 11 l125 -64 -365 -182 -364 -182 -128 63 c-70 35 -128 66
-127 69 1 7 711 359 724 359 6 0 66 -29 135 -63z m-1070 -401 l370 -185 0
-365 0 -365 -375 187 -375 188 0 362 c0 200 2 363 5 363 3 0 172 -83 375 -185z
m1310 -178 l0 -362 -375 -188 -375 -187 0 365 0 365 368 184 c202 102 370 185
375 185 4 1 7 -162 7 -362z"/>
</g>
</svg>
